# xmcd CD database file generated by Grip 3.2.0
# 
# Track frame offsets:
#       150
#       15120
#       35807
#       52835
#       69720
#       86675
#       120632
#       138700
#       155592
#       164005
#       175987
#       204597
#       217422
#       236630
#       250107
#       276207
#       291085
#       308257
#       322082
#       337907
# 
# Disc length: 4711 seconds
# 
# Revision: 2
# Processed by: cddbd v1.5.1PL2 Copyright (c) Steve Scherf et al.
# Submitted via: Grip 3.2.0
# 
DISCID=2b126514
DTITLE=Rolling Stones - Forty Licks  Disc 1
DYEAR=2002
DGENRE=Blues
TTITLE0=Street Fighting Man
TTITLE1=Gimme Shelter
TTITLE2=(I Can't Get No) Satisfaction
TTITLE3=The Last Time
TTITLE4=Jumpin' Jack Flash
TTITLE5=You Can't Always Get What You Want
TTITLE6=19th Nervous Breakdown
TTITLE7=Under My Thumb
TTITLE8=Not Fade Away
TTITLE9=Have You Seen Your Mother Baby, Standing In The Shadow?
TTITLE10=Sympathy For The Devil
TTITLE11=Mother's Little Helper
TTITLE12=She's A Rainbow
TTITLE13=Get Off Of My Cloud
TTITLE14=Wild Horses
TTITLE15=Ruby Tuesday
TTITLE16=Paint It Black
TTITLE17=Honky Tonk Women
TTITLE18=It's All Over Now
TTITLE19=Let's Spend The Night Together
EXTD=
EXTT0=
EXTT1=
EXTT2=
EXTT3=
EXTT4=
EXTT5=
EXTT6=
EXTT7=
EXTT8=
EXTT9=
EXTT10=
EXTT11=
EXTT12=
EXTT13=
EXTT14=
EXTT15=
EXTT16=
EXTT17=
EXTT18=
EXTT19=
PLAYORDER=
